/* XPM */
static char *start_xpm[] = {
"48 32 2 1",
" 	c None",
"1	c #9AB0C9",
"                                                ",
"                                                ",
"                                                ",
"                                                ",
"                                                ",
"                                                ",
"                                                ",
"                                                ",
"                1111  1111  1111                ",
"                1111  1111  1111                ",
"                1111  1111  1111                ",
"                1111  1111  1111                ",
"                                                ",
"                                                ",
"                1111  1111  1111                ",
"                1111  1111  1111                ",
"                1111  1111  1111                ",
"                1111  1111  1111                ",
"                                                ",
"                                                ",
"                1111  1111  1111                ",
"                1111  1111  1111                ",
"                1111  1111  1111                ",
"                1111  1111  1111                ",
"                                                ",
"                                                ",
"                                                ",
"                                                ",
"                                                ",
"                                                ",
"                                                ",
"                                                "};
