/* XPM */
static char *maximizeO_xpm[] = {
"36 54 3 1 ",
"  c #516591",
". c #FFFFFF",
"X c #273044",
"                                    ",
"                                    ",
"                                    ",
"                                    ",
"                                    ",
"                                    ",
"                                    ",
"                                    ",
"                                    ",
"             ..........             ",
"             ..........             ",
"             .        .             ",
"             .        .             ",
"             .        .             ",
"             .        .             ",
"             .        .             ",
"             ..........             ",
"                                    ",
"                                    ",
"                                    ",
"                                    ",
"                                    ",
"                                    ",
"                                    ",
"                                    ",
"                                    ",
"                                    ",
"XXXXXXXXXXXXXXXXXXXXXXXXXXXXXXXXXXXX",
"XXXXXXXXXXXXXXXXXXXXXXXXXXXXXXXXXXXX",
"XXXXXXXXXXXXXXXXXXXXXXXXXXXXXXXXXXXX",
"XXXXXXXXXXXXXXXXXXXXXXXXXXXXXXXXXXXX",
"XXXXXXXXXXXXXXXXXXXXXXXXXXXXXXXXXXXX",
"XXXXXXXXXXXXXXXXXXXXXXXXXXXXXXXXXXXX",
"XXXXXXXXXXXXXXXXXXXXXXXXXXXXXXXXXXXX",
"XXXXXXXXXXXXXXXXXXXXXXXXXXXXXXXXXXXX",
"XXXXXXXXXXXXXXXXXXXXXXXXXXXXXXXXXXXX",
"XXXXXXXXXXXXX..........XXXXXXXXXXXXX",
"XXXXXXXXXXXXX..........XXXXXXXXXXXXX",
"XXXXXXXXXXXXX.XXXXXXXX.XXXXXXXXXXXXX",
"XXXXXXXXXXXXX.XXXXXXXX.XXXXXXXXXXXXX",
"XXXXXXXXXXXXX.XXXXXXXX.XXXXXXXXXXXXX",
"XXXXXXXXXXXXX.XXXXXXXX.XXXXXXXXXXXXX",
"XXXXXXXXXXXXX.XXXXXXXX.XXXXXXXXXXXXX",
"XXXXXXXXXXXXX..........XXXXXXXXXXXXX",
"XXXXXXXXXXXXXXXXXXXXXXXXXXXXXXXXXXXX",
"XXXXXXXXXXXXXXXXXXXXXXXXXXXXXXXXXXXX",
"XXXXXXXXXXXXXXXXXXXXXXXXXXXXXXXXXXXX",
"XXXXXXXXXXXXXXXXXXXXXXXXXXXXXXXXXXXX",
"XXXXXXXXXXXXXXXXXXXXXXXXXXXXXXXXXXXX",
"XXXXXXXXXXXXXXXXXXXXXXXXXXXXXXXXXXXX",
"XXXXXXXXXXXXXXXXXXXXXXXXXXXXXXXXXXXX",
"XXXXXXXXXXXXXXXXXXXXXXXXXXXXXXXXXXXX",
"XXXXXXXXXXXXXXXXXXXXXXXXXXXXXXXXXXXX",
"XXXXXXXXXXXXXXXXXXXXXXXXXXXXXXXXXXXX"};
