/* XPM */
static char *restoreA_xpm[] = {
"36 54 3 1 ",
"  c #394765",
". c #FFFFFF",
"X c #273044",
"                                    ",
"                                    ",
"                                    ",
"                                    ",
"                                    ",
"                                    ",
"                                    ",
"                                    ",
"               ........             ",
"                      .             ",
"             ........ .             ",
"             ........ .             ",
"             .      . .             ",
"             .      . .             ",
"             .      . .             ",
"             .      . .             ",
"             .      .               ",
"             ........               ",
"                                    ",
"                                    ",
"                                    ",
"                                    ",
"                                    ",
"                                    ",
"                                    ",
"                                    ",
"                                    ",
"XXXXXXXXXXXXXXXXXXXXXXXXXXXXXXXXXXXX",
"XXXXXXXXXXXXXXXXXXXXXXXXXXXXXXXXXXXX",
"XXXXXXXXXXXXXXXXXXXXXXXXXXXXXXXXXXXX",
"XXXXXXXXXXXXXXXXXXXXXXXXXXXXXXXXXXXX",
"XXXXXXXXXXXXXXXXXXXXXXXXXXXXXXXXXXXX",
"XXXXXXXXXXXXXXXXXXXXXXXXXXXXXXXXXXXX",
"XXXXXXXXXXXXXXXXXXXXXXXXXXXXXXXXXXXX",
"XXXXXXXXXXXXXXXXXXXXXXXXXXXXXXXXXXXX",
"XXXXXXXXXXXXXXX........XXXXXXXXXXXXX",
"XXXXXXXXXXXXXXXXXXXXXX.XXXXXXXXXXXXX",
"XXXXXXXXXXXXX........X.XXXXXXXXXXXXX",
"XXXXXXXXXXXXX........X.XXXXXXXXXXXXX",
"XXXXXXXXXXXXX.XXXXXX.X.XXXXXXXXXXXXX",
"XXXXXXXXXXXXX.XXXXXX.X.XXXXXXXXXXXXX",
"XXXXXXXXXXXXX.XXXXXX.X.XXXXXXXXXXXXX",
"XXXXXXXXXXXXX.XXXXXX.X.XXXXXXXXXXXXX",
"XXXXXXXXXXXXX.XXXXXX.XXXXXXXXXXXXXXX",
"XXXXXXXXXXXXX........XXXXXXXXXXXXXXX",
"XXXXXXXXXXXXXXXXXXXXXXXXXXXXXXXXXXXX",
"XXXXXXXXXXXXXXXXXXXXXXXXXXXXXXXXXXXX",
"XXXXXXXXXXXXXXXXXXXXXXXXXXXXXXXXXXXX",
"XXXXXXXXXXXXXXXXXXXXXXXXXXXXXXXXXXXX",
"XXXXXXXXXXXXXXXXXXXXXXXXXXXXXXXXXXXX",
"XXXXXXXXXXXXXXXXXXXXXXXXXXXXXXXXXXXX",
"XXXXXXXXXXXXXXXXXXXXXXXXXXXXXXXXXXXX",
"XXXXXXXXXXXXXXXXXXXXXXXXXXXXXXXXXXXX",
"XXXXXXXXXXXXXXXXXXXXXXXXXXXXXXXXXXXX"};
